<svg width="49" height="42" viewBox="0 0 49 42" fill="none" xmlns="http://www.w3.org/2000/svg">
<path d="M0 41.4935H13.7915L19.8551 23.8974C20.2117 22.9463 21.7098 21.044 23.8974 21.044H38.8779C40.1857 21.044 41.66 19.6173 42.3258 17.715C42.9916 15.8127 46.7248 5.11238 48.5082 0H34.8355L28.6531 17.715C28.2964 18.6661 26.846 20.5684 23.8974 20.5684H9.7492C8.79805 20.5684 7.20489 21.472 6.06352 24.6108C4.92215 27.7495 1.5456 37.1738 0 41.4935Z" fill="#F1F1F1"/>
<path d="M0 41.4935H13.7915L19.8551 23.8974C20.2117 22.9463 21.7098 21.044 23.8974 21.044H38.8779C40.1857 21.044 41.66 19.6173 42.3258 17.715C42.9916 15.8127 46.7248 5.11238 48.5082 0H34.8355L28.6531 17.715C28.2964 18.6661 26.846 20.5684 23.8974 20.5684H9.7492C8.79805 20.5684 7.20489 21.472 6.06352 24.6108C4.92215 27.7495 1.5456 37.1738 0 41.4935Z" fill="black" fill-opacity="0.8"/>
</svg>
