<svg width="51" height="43" viewBox="0 0 51 43" fill="none" xmlns="http://www.w3.org/2000/svg">
<path d="M1 42.4935H14.7915L20.8551 24.8974C21.2117 23.9463 22.5 22.5 24.8974 22.5L39.8779 22.044C41.1857 22.044 42.66 20.6173 43.3258 18.715C43.9916 16.8127 47.7248 6.11238 49.5082 1H35.8355L29.6531 18.715C29.2964 19.6661 27.846 21.5684 24.8974 21.5684H10.7492C9.79805 21.5684 8.20489 22.472 7.06352 25.6108C5.92215 28.7495 2.5456 38.1738 1 42.4935Z" fill="#F1F1F1"/>
<path d="M1 42.4935H14.7915L20.8551 24.8974C21.2117 23.9463 22.5 22.5 24.8974 22.5L39.8779 22.044C41.1857 22.044 42.66 20.6173 43.3258 18.715C43.9916 16.8127 47.7248 6.11238 49.5082 1H35.8355L29.6531 18.715C29.2964 19.6661 27.846 21.5684 24.8974 21.5684H10.7492C9.79805 21.5684 8.20489 22.472 7.06352 25.6108C5.92215 28.7495 2.5456 38.1738 1 42.4935Z" fill="black" fill-opacity="0.8"/>
<path d="M24.8974 22.5C22.5 22.5 21.2117 23.9463 20.8551 24.8974L14.7915 42.4935H1C2.5456 38.1738 5.92215 28.7495 7.06352 25.6108C8.20489 22.472 9.79805 21.5684 10.7492 21.5684M24.8974 22.5C27.085 22.5 35.7959 22.044 39.8779 22.044M24.8974 22.5L39.8779 22.044M39.8779 22.044C41.1857 22.044 42.66 20.6173 43.3258 18.715C43.9916 16.8127 47.7248 6.11238 49.5082 1H35.8355L29.6531 18.715C29.2964 19.6661 27.846 21.5684 24.8974 21.5684M24.8974 21.5684C21.9489 21.5684 14.2367 21.5684 10.7492 21.5684M24.8974 21.5684H10.7492" stroke="white"/>
</svg>
